<?xml version="1.0" encoding="UTF-8"?>
<svg version="1.1" xmlns="http://www.w3.org/2000/svg" width="610" height="522">
<path d="M0 0 C201.3 0 402.6 0 610 0 C610 172.26 610 344.52 610 522 C408.7 522 207.4 522 0 522 C0 349.74 0 177.48 0 0 Z " fill="#FEFEFE" transform="translate(0,0)"/>
<path d="M0 0 C5.52394709 4.88512328 10.46684497 10.13652589 15.18359375 15.7890625 C16.15463451 16.92326009 17.12745306 18.05593686 18.1015625 19.1875 C21.13722039 22.71433615 24.16777451 26.24524034 27.18359375 29.7890625 C27.63557129 30.31556396 28.08754883 30.84206543 28.55322266 31.38452148 C37.92564446 42.42092594 45.18359375 59.01958786 45.18359375 73.7890625 C45.84359375 73.7890625 46.50359375 73.7890625 47.18359375 73.7890625 C48.02505331 76.87023677 48.85532437 79.95431871 49.68359375 83.0390625 C49.92207031 83.91175781 50.16054688 84.78445312 50.40625 85.68359375 C50.63183594 86.52792969 50.85742188 87.37226563 51.08984375 88.2421875 C51.29931641 89.01723633 51.50878906 89.79228516 51.72460938 90.59082031 C52.18359375 92.7890625 52.18359375 92.7890625 52.18359375 96.7890625 C52.84359375 96.7890625 53.50359375 96.7890625 54.18359375 96.7890625 C54.36792969 97.32015625 54.55226563 97.85125 54.7421875 98.3984375 C56.56013552 102.82615091 58.12294439 105.21443825 62.55859375 107.2265625 C66.05281735 108.5376183 69.45773979 109.40692363 73.18359375 109.7890625 C73.18359375 110.4490625 73.18359375 111.1090625 73.18359375 111.7890625 C73.90192383 111.83732178 74.62025391 111.88558105 75.36035156 111.93530273 C82.97421066 112.50099846 90.41567722 113.53824745 97.93359375 114.8515625 C99.02414062 115.03783203 100.1146875 115.22410156 101.23828125 115.41601562 C103.88753161 115.86917687 106.53590078 116.32690454 109.18359375 116.7890625 C109.51359375 117.7790625 109.84359375 118.7690625 110.18359375 119.7890625 C112.18375841 120.99788346 112.18375841 120.99788346 114.18359375 121.7890625 C114.18359375 122.4490625 114.18359375 123.1090625 114.18359375 123.7890625 C114.84359375 123.7890625 115.50359375 123.7890625 116.18359375 123.7890625 C118.61478562 128.1416802 119.1146166 131.88514043 118.18359375 136.7890625 C115.77166571 141.38582146 113.02567137 144.78159333 108.18359375 146.7890625 C98.87178709 147.95375787 89.37929178 145.93257211 80.22705078 144.33544922 C77.79378466 143.9114822 75.35822776 143.50347087 72.921875 143.09765625 C71.35531191 142.8316512 69.78889966 142.56475592 68.22265625 142.296875 C67.50381256 142.1759549 66.78496887 142.05503479 66.04434204 141.93045044 C61.93939183 141.20786711 58.10304295 140.20104461 54.18359375 138.7890625 C53.1471875 138.44746094 52.11078125 138.10585937 51.04296875 137.75390625 C49.50382812 137.24537109 49.50382812 137.24537109 47.93359375 136.7265625 C46.8971875 136.38496094 45.86078125 136.04335937 44.79296875 135.69140625 C42.18359375 134.7890625 42.18359375 134.7890625 40.18359375 133.7890625 C40.18359375 133.1290625 40.18359375 132.4690625 40.18359375 131.7890625 C39.52359375 131.6034375 38.86359375 131.4178125 38.18359375 131.2265625 C33.86597616 129.15770407 30.65359769 126.04854319 27.18359375 122.7890625 C26.60867188 122.26183594 26.03375 121.73460937 25.44140625 121.19140625 C24.18359375 119.7890625 24.18359375 119.7890625 24.18359375 117.7890625 C23.19359375 117.4590625 22.20359375 117.1290625 21.18359375 116.7890625 C19.69726562 114.42822266 19.69726562 114.42822266 18.15234375 111.328125 C17.30736328 109.66136719 17.30736328 109.66136719 16.4453125 107.9609375 C15.86394531 106.79046875 15.28257812 105.62 14.68359375 104.4140625 C13.53254914 102.11197327 12.37650918 99.81237312 11.21484375 97.515625 C10.70501953 96.49033691 10.19519531 95.46504883 9.66992188 94.40869141 C8.33554532 92.05687465 7.11716204 90.6203362 5.18359375 88.7890625 C4.15197767 86.80518542 3.14835757 84.80629594 2.18359375 82.7890625 C1.05051836 81.46134395 1.05051836 81.46134395 -1.87890625 81.2890625 C-7.60895404 82.01668762 -9.83581007 84.77132234 -13.81640625 88.7890625 C-15.03838592 89.9993814 -16.26110799 91.20895098 -17.484375 92.41796875 C-20.71890127 95.62683044 -23.93341361 98.85472012 -27.13647461 102.0949707 C-28.62028121 103.59128432 -30.11590642 105.07585806 -31.61328125 106.55859375 C-34.19064171 109.16794272 -36.47509525 111.96748258 -38.81640625 114.7890625 C-39.89921875 115.7790625 -39.89921875 115.7790625 -41.00390625 116.7890625 C-44.92109688 121.11147975 -45.39339154 126.5139935 -45.25 132.1484375 C-43.89169142 140.42065911 -37.3489147 146.73640912 -31.76953125 152.5625 C-29.81640625 154.7890625 -29.81640625 154.7890625 -28.86328125 156.765625 C-27.3702579 159.65139402 -25.13642867 161.53054288 -22.81640625 163.7890625 C-2.92002689 186.93806735 4.50999884 206.49509736 4.484375 236.96484375 C4.48826955 238.90390615 4.49260577 240.84296771 4.49736023 242.7820282 C4.5047801 246.82387067 4.50456012 250.8656257 4.49926758 254.9074707 C4.49344955 260.07663967 4.51048061 265.24545304 4.53361225 270.41456318 C4.54835937 274.40978573 4.54922045 278.40492252 4.54610252 282.40016747 C4.54661429 284.30628354 4.55182468 286.2124046 4.56191444 288.11849403 C4.57429366 290.78146106 4.56748065 293.44373302 4.5559082 296.10668945 C4.56355194 296.88553497 4.57119568 297.66438049 4.57907104 298.46682739 C4.51019635 305.66158765 2.38714478 311.58551147 -2.81640625 316.7890625 C-7.83978237 319.59056072 -12.17733609 320.60099962 -17.81640625 319.7890625 C-22.99539613 318.1212522 -26.38191711 316.03166673 -29.81640625 311.7890625 C-30.62890625 308.9765625 -30.62890625 308.9765625 -30.81640625 306.7890625 C-31.47640625 306.7890625 -32.13640625 306.7890625 -32.81640625 306.7890625 C-32.81561066 305.62110138 -32.81481506 304.45314026 -32.81399536 303.24978638 C-32.81038513 292.21558594 -32.83830163 281.1818501 -32.89668465 270.14779854 C-32.92569428 264.47569994 -32.94379087 258.80401327 -32.93652344 253.13183594 C-32.92991179 247.65260555 -32.95252036 242.17418783 -32.99496078 236.69512558 C-33.00605923 234.61010508 -33.00682177 232.52500184 -32.99682999 230.43997574 C-32.94256386 217.44511038 -33.31371401 208.92616373 -42.37890625 198.9765625 C-43.18328125 198.2546875 -43.98765625 197.5328125 -44.81640625 196.7890625 C-48.94268878 192.74656236 -52.83456062 188.52813023 -56.7109375 184.25 C-59.66347659 181.00636551 -62.71162918 177.88881566 -65.81640625 174.7890625 C-67.20335605 173.27911903 -68.57832398 171.7580865 -69.94140625 170.2265625 C-75.18573978 164.36936862 -80.47701345 158.55958639 -85.81640625 152.7890625 C-86.4403125 152.098125 -87.06421875 151.4071875 -87.70703125 150.6953125 C-89.35801557 148.87291011 -89.35801557 148.87291011 -91.81640625 146.7890625 C-93.13640625 146.7890625 -94.45640625 146.7890625 -95.81640625 146.7890625 C-96.19775734 150.85680748 -95.09991676 153.74142046 -93.6472168 157.49755859 C-92.21072032 161.45963792 -91.18248237 165.52412741 -90.12890625 169.6015625 C-89.90396484 170.44654297 -89.67902344 171.29152344 -89.44726562 172.16210938 C-87.81640625 178.40299677 -87.81640625 178.40299677 -87.81640625 181.7890625 C-87.15640625 181.7890625 -86.49640625 181.7890625 -85.81640625 181.7890625 C-85.14485276 184.05855352 -84.47900995 186.3294586 -83.81640625 188.6015625 C-83.25953125 190.49841797 -83.25953125 190.49841797 -82.69140625 192.43359375 C-81.81640625 195.7890625 -81.81640625 195.7890625 -81.81640625 198.7890625 C-81.15640625 198.7890625 -80.49640625 198.7890625 -79.81640625 198.7890625 C-79.72868046 203.12226645 -79.67577046 207.45523918 -79.62890625 211.7890625 C-79.60376953 213.00980469 -79.57863281 214.23054687 -79.55273438 215.48828125 C-79.49647848 222.42650834 -79.95450697 227.47482356 -82.81640625 233.7890625 C-83.48893469 236.05213347 -84.1358588 238.32300987 -84.75390625 240.6015625 C-86.23423545 245.89571691 -87.93372216 251.02479811 -89.8671875 256.16796875 C-91.37043972 260.31892446 -92.60152765 264.54619102 -93.81640625 268.7890625 C-94.47640625 268.7890625 -95.13640625 268.7890625 -95.81640625 268.7890625 C-95.914375 269.34851563 -96.01234375 269.90796875 -96.11328125 270.484375 C-98.09110297 281.08959146 -101.12550896 291.38108656 -104.95703125 301.4609375 C-105.90313048 303.91591963 -105.90313048 303.91591963 -106.69140625 307.0390625 C-108.80942757 312.21644795 -113.00777691 316.9038849 -117.81640625 319.7890625 C-122.91779959 321.33789317 -128.37014117 321.47174113 -133.50390625 320.0390625 C-139.96486108 316.54665448 -142.95261423 313.87213166 -145.50390625 306.9140625 C-146.57201183 299.65094457 -145.32221925 294.41426587 -142.62890625 287.7265625 C-141.98235124 286.0541664 -141.33784381 284.38097737 -140.6953125 282.70703125 C-140.37578613 281.88122559 -140.05625977 281.05541992 -139.72705078 280.20458984 C-137.97329295 275.55266492 -136.4773158 270.81809083 -134.95703125 266.0859375 C-133.81640625 262.7890625 -133.81640625 262.7890625 -132.25 259.14453125 C-131.12277703 256.50615378 -130.26280202 254.13095166 -129.62890625 251.3515625 C-129.36078125 250.1759375 -129.09265625 249.0003125 -128.81640625 247.7890625 C-128.15640625 247.7890625 -127.49640625 247.7890625 -126.81640625 247.7890625 C-126.61015625 246.5103125 -126.40390625 245.2315625 -126.19140625 243.9140625 C-124.47804733 235.23471149 -121.78693961 225.73012923 -117.81640625 217.7890625 C-116.49433325 209.26903652 -120.1338606 203.45487334 -124.06640625 196.16796875 C-125.81640625 192.7890625 -125.81640625 192.7890625 -125.81640625 190.7890625 C-126.80640625 190.4590625 -127.79640625 190.1290625 -128.81640625 189.7890625 C-129.95571748 187.07726441 -130.92021365 184.45532902 -131.81640625 181.6640625 C-132.31407606 180.16068495 -132.81405536 178.65806985 -133.31640625 177.15625 C-133.56213379 176.4142334 -133.80786133 175.6722168 -134.06103516 174.90771484 C-134.73919606 173.00562036 -135.56267214 171.15683564 -136.40234375 169.3203125 C-138.11411049 165.04562428 -138.79422412 160.95169174 -139.44140625 156.4140625 C-139.77166532 151.18224054 -139.77166532 151.18224054 -141.81640625 146.7890625 C-142.88011566 131.06227999 -142.26885804 115.17595787 -138.81640625 99.7890625 C-138.65543457 99.04011719 -138.49446289 98.29117188 -138.32861328 97.51953125 C-135.67001661 85.52647651 -131.02347476 75.34442811 -124.81640625 64.7890625 C-124.23890625 63.77070313 -123.66140625 62.75234375 -123.06640625 61.703125 C-119.22170517 55.25216021 -114.52998678 49.91732226 -109.3671875 44.515625 C-106.81820204 41.86235716 -106.81820204 41.86235716 -104.69921875 39.13671875 C-96.64746676 29.09708609 -84.25682315 21.07658375 -73.3671875 14.37890625 C-70.93361572 12.86211649 -68.60000312 11.24917168 -66.25390625 9.6015625 C-61.61240684 6.47650964 -55.55988243 2.7890625 -49.81640625 2.7890625 C-49.81640625 2.1290625 -49.81640625 1.4690625 -49.81640625 0.7890625 C-47.13171708 -0.19844409 -44.4440736 -1.17606105 -41.75390625 -2.1484375 C-41.00173828 -2.42623047 -40.24957031 -2.70402344 -39.47460938 -2.99023438 C-26.37659401 -7.69644769 -11.43225024 -8.97455428 0 0 Z " fill="#2B3742" transform="translate(287.81640625,117.2109375)"/>
<path d="M0 0 C0.79019531 -0.01160156 1.58039063 -0.02320312 2.39453125 -0.03515625 C8.22847146 -0.0065117 13.0848147 1.24483302 18.5 3.375 C18.5 4.035 18.5 4.695 18.5 5.375 C19.16 5.560625 19.82 5.74625 20.5 5.9375 C25.72959667 8.44334841 30.34263539 12.10849431 33 17.3125 C33.165 17.993125 33.33 18.67375 33.5 19.375 C34.16 19.375 34.82 19.375 35.5 19.375 C39.80159979 30.76271729 41.91585851 43.10349817 37.734375 54.8984375 C33.52202343 63.34980109 27.98642078 70.19821857 19.5 74.375 C18.83597168 74.72240234 18.17194336 75.06980469 17.48779297 75.42773438 C11.75089649 78.24400499 6.97905695 79.01602413 0.625 78.875 C-0.25051514 78.86291504 -1.12603027 78.85083008 -2.02807617 78.83837891 C-12.32902432 78.52307301 -20.30418427 75.93060652 -27.5 68.375 C-28.056875 67.79234375 -28.61375 67.2096875 -29.1875 66.609375 C-32.8803122 62.52597689 -35.5 59.07937465 -35.5 53.375 C-36.16 53.375 -36.82 53.375 -37.5 53.375 C-40.51086584 43.77786512 -40.51086584 33.97213488 -37.5 24.375 C-36.84 24.375 -36.18 24.375 -35.5 24.375 C-35.29375 23.55 -35.0875 22.725 -34.875 21.875 C-31.74635488 13.91117605 -25.86770676 7.68647285 -18.5 3.375 C-12.32592278 0.69849225 -6.68509536 -0.09814985 0 0 Z " fill="#2B3742" transform="translate(361.5,75.625)"/>
<path d="M0 0 C3.58552881 1.63687185 4.79315055 2.68972583 7 6 C7.25447559 8.69778252 7.25447559 8.69778252 7.26069641 12.021698 C7.26778122 13.2807193 7.27486603 14.5397406 7.28216553 15.83691406 C7.27987162 17.23486364 7.27736191 18.63281287 7.2746582 20.03076172 C7.27900475 21.50090799 7.2841877 22.971052 7.29014587 24.44119263 C7.30355462 28.43711648 7.30411238 32.43294587 7.30158257 36.42888784 C7.30051395 39.76388536 7.30539354 43.09886367 7.310188 46.43385708 C7.32129005 54.30211069 7.32171692 62.17031656 7.31567383 70.03857422 C7.30963488 78.15642505 7.3219414 86.27410253 7.3432439 94.39192379 C7.36085756 101.36016886 7.36686156 108.32835874 7.36360615 115.29662526 C7.36179249 119.45901711 7.36443758 123.62128536 7.37832069 127.78365707 C7.39089034 131.69890457 7.38896326 135.6138819 7.37590981 139.52912521 C7.37354243 140.9654296 7.37628453 142.40175294 7.38453293 143.83803558 C7.39498752 145.80011045 7.38510424 147.76226217 7.3742218 149.72433472 C7.37438954 150.82198088 7.37455729 151.91962704 7.37473011 153.0505352 C6.94832941 156.40669428 5.99767651 158.29303879 4 161 C0.0696314 162.9651843 -4.7147185 162.46909886 -9 162 C-12.16620095 159.81381363 -12.7896387 158.63108389 -14 155 C-14.09959331 153.03712994 -14.13933737 151.07103129 -14.14717102 149.10565186 C-14.15432632 147.87476334 -14.16148163 146.64387482 -14.16885376 145.37568665 C-14.17169398 144.00924708 -14.17440572 142.64280724 -14.17700195 141.27636719 C-14.18326765 139.83902319 -14.18991455 138.40168082 -14.19691467 136.96434021 C-14.21794533 132.24186326 -14.22831632 127.51938602 -14.23828125 122.796875 C-14.24232922 121.1703108 -14.24644615 119.54374677 -14.25063133 117.91718292 C-14.26968105 110.2749563 -14.28391237 102.63273933 -14.2922433 94.99049354 C-14.30201445 86.17298131 -14.32833154 77.35572021 -14.36874419 68.53829646 C-14.39891882 61.72034644 -14.41371346 54.90246836 -14.41702431 48.08445287 C-14.41937334 44.01359365 -14.42831423 39.94300277 -14.45348549 35.87221527 C-14.47679491 32.04064149 -14.48098816 28.20951218 -14.47072411 24.37788582 C-14.47022932 22.97465853 -14.47653296 21.57140916 -14.49028015 20.16824913 C-14.61311764 6.88282587 -14.61311764 6.88282587 -10 1 C-6.80876226 -0.59561887 -3.47254909 -0.3799142 0 0 Z " fill="#293540" transform="translate(394,273)"/>
<path d="M0 0 C3.18970398 1.73983854 5.44695493 3.44695493 8 6 C7.72654066 10.13607253 6.29631284 12.22501283 3.5 15.1875 C0.93972502 17.8781682 0.93972502 17.8781682 -1 21 C-4.71599191 21.20086443 -5.77208445 21.1519437 -9 19 C-8.45276317 15.62537285 -7.9451 13.91765 -6 11 C-7.32 11 -8.64 11 -10 11 C-10.10836453 12.43583001 -10.18576167 13.8740202 -10.25 15.3125 C-10.31960937 16.51326172 -10.31960937 16.51326172 -10.390625 17.73828125 C-10.18594124 20.09401718 -10.18594124 20.09401718 -8.46875 21.75 C-5.12439386 23.44334488 -1.9250022 23.5659262 1.75 23.6875 C2.79607422 23.73874023 2.79607422 23.73874023 3.86328125 23.79101562 C5.57497108 23.87308295 7.2874576 23.93822919 9 24 C10.43811766 26.87106223 11.09195117 28.46621565 10.5390625 31.67578125 C10.23742187 32.54589844 9.93578125 33.41601562 9.625 34.3125 C9.32851562 35.19550781 9.03203125 36.07851563 8.7265625 36.98828125 C8.48679688 37.65214844 8.24703125 38.31601562 8 39 C7 36 7 36 8 33 C7.16597656 33.03480469 6.33195312 33.06960938 5.47265625 33.10546875 C-9.68767866 33.47015035 -9.68767866 33.47015035 -15.66015625 28.6640625 C-19.55142006 24.22000077 -19.61956442 19.52590806 -19.35546875 13.80859375 C-18.7178428 8.77064805 -17.17113181 6.05687504 -13.4375 2.6875 C-8.97838092 -0.39958244 -5.34726515 -0.67402502 0 0 Z " fill="#44505B" transform="translate(178,371)"/>
<path d="M0 0 C0.33 0 0.66 0 1 0 C1 29.7 1 59.4 1 90 C3.64 90 6.28 90 9 90 C11.49609375 91.390625 11.49609375 91.390625 13.4375 93.25 C14.09621094 93.85328125 14.75492187 94.4565625 15.43359375 95.078125 C19.08661224 99.56013272 18.18361879 105.63696534 18.1875 111.125 C18.19974609 112.04410156 18.21199219 112.96320313 18.22460938 113.91015625 C18.22750977 115.22693359 18.22750977 115.22693359 18.23046875 116.5703125 C18.23457764 117.37227051 18.23868652 118.17422852 18.24291992 119.00048828 C18 121 18 121 16 123 C10.43181818 122.43181818 10.43181818 122.43181818 9 121 C8.84379445 119.58672053 8.74943827 118.1664541 8.68359375 116.74609375 C8.64169922 115.89208984 8.59980469 115.03808594 8.55664062 114.15820312 C8.49766602 112.81145508 8.49766602 112.81145508 8.4375 111.4375 C8.37272461 110.08495117 8.37272461 110.08495117 8.30664062 108.70507812 C8.20021858 106.47021515 8.09820012 104.23523692 8 102 C5.92446352 101.4465236 4.15634036 101 2 101 C2.01160156 102.05832031 2.02320313 103.11664063 2.03515625 104.20703125 C2.13749986 118.48876227 1.60160657 132.73264422 1 147 C0.67 147 0.34 147 0 147 C0 98.49 0 49.98 0 0 Z " fill="#465159" transform="translate(380,281)"/>
<path d="M0 0 C0.33 0 0.66 0 1 0 C1 12.54 1 25.08 1 38 C3.31 38 5.62 38 8 38 C11.87528579 40.37801628 14.12079 42.88490274 16 47 C16.41380221 50.54863357 16.37326804 54.05670098 16.3125 57.625 C16.31733398 59.05585938 16.31733398 59.05585938 16.32226562 60.515625 C16.26739513 67.59890731 16.26739513 67.59890731 14 71 C12.02 70.67 10.04 70.34 8 70 C7.67 63.4 7.34 56.8 7 50 C6.34 49.67 5.68 49.34 5 49 C5 48.34 5 47.68 5 47 C3.68 47 2.36 47 1 47 C1 61.52 1 76.04 1 91 C0.67 91 0.34 91 0 91 C0 60.97 0 30.94 0 0 Z " fill="#5D6770" transform="translate(255,333)"/>
<path d="M0 0 C2.35891783 2.35891783 2.25419143 2.8018714 2.2784729 5.99893188 C2.28963638 6.83468246 2.30079987 7.67043304 2.31230164 8.5315094 C2.31446182 9.45004196 2.31662201 10.36857452 2.31884766 11.31494141 C2.32889328 12.28083694 2.3389389 13.24673248 2.34928894 14.24189758 C2.38026173 17.44511298 2.39719517 20.64824428 2.4140625 23.8515625 C2.43276281 26.06831595 2.45233535 28.28506219 2.4727478 30.50180054 C2.5241951 36.34448003 2.56375329 42.18718263 2.60089111 48.02996826 C2.64085196 53.98878759 2.69198032 59.94750975 2.7421875 65.90625 C2.83909588 77.60409853 2.92345278 89.30200177 3 101 C4.98 100.505 4.98 100.505 7 100 C7.33 100.99 7.66 101.98 8 103 C7.505 103.99 7.505 103.99 7 105 C6.95977609 107.3329866 6.95679753 109.66706666 7 112 C5.68 111.67 4.36 111.34 3 111 C2.97494385 112.10512939 2.9498877 113.21025879 2.92407227 114.34887695 C2.82993491 118.44714044 2.72972959 122.54523694 2.62768555 126.64331055 C2.58436066 128.41735937 2.54268381 130.19144923 2.50268555 131.96557617 C2.4449238 134.51493705 2.38124638 137.0640918 2.31640625 139.61328125 C2.29969376 140.40712723 2.28298126 141.20097321 2.26576233 142.01887512 C2.17882282 145.24683077 2.02749634 147.91751099 1 151 C0.34 151 -0.32 151 -1 151 C-0.67 101.17 -0.34 51.34 0 0 Z " fill="#CDD5DB" transform="translate(401,280)"/>
<path d="M0 0 C0.33 0 0.66 0 1 0 C1 29.04 1 58.08 1 88 C0.67 88 0.34 88 0 88 C-0.495 77.605 -0.495 77.605 -1 67 C-2.485 67.99 -2.485 67.99 -4 69 C-6.69921875 69.1953125 -6.69921875 69.1953125 -9.6875 69.125 C-10.68136719 69.10695313 -11.67523438 69.08890625 -12.69921875 69.0703125 C-13.45847656 69.04710937 -14.21773438 69.02390625 -15 69 C-15.625 66.6875 -15.625 66.6875 -16 64 C-14 61 -14 61 -12.0546875 60.48828125 C-11.33539063 60.43027344 -10.61609375 60.37226563 -9.875 60.3125 C-7.956875 60.1578125 -7.956875 60.1578125 -6 60 C-6.05800781 59.07058594 -6.11601562 58.14117187 -6.17578125 57.18359375 C-6.22089844 55.94738281 -6.26601563 54.71117187 -6.3125 53.4375 C-6.39951172 51.61025391 -6.39951172 51.61025391 -6.48828125 49.74609375 C-5.99526554 45.96367722 -5.80553863 45.49395709 -3.51367188 42.84179688 C-0.35960847 38.5976367 -0.26811781 34.94756538 -0.29296875 29.78515625 C-0.27784744 28.92941513 -0.26272614 28.07367401 -0.24714661 27.19200134 C-0.20445449 24.48189564 -0.19544982 21.77290768 -0.1875 19.0625 C-0.16434122 17.21546546 -0.13897301 15.36845722 -0.11132812 13.52148438 C-0.0486588 9.01422492 -0.01617922 4.50765636 0 0 Z " fill="#5D6A71" transform="translate(291,334)"/>
<path d="M0 0 C3.79668722 0.05494482 5.00788039 0.26004345 8.3125 2.375 C8.93125 3.035 9.55 3.695 10.1875 4.375 C9.60823787 7.91319573 8.34426523 9.62528243 5.8125 12.125 C5.20664063 12.73859375 4.60078125 13.3521875 3.9765625 13.984375 C2.1875 15.375 2.1875 15.375 -0.8125 15.375 C-0.14152328 11.18139551 2.0433394 7.97165648 4.1875 4.375 C2.72565942 4.60360058 1.26794581 4.85870392 -0.1875 5.125 C-0.99960938 5.26421875 -1.81171875 5.4034375 -2.6484375 5.546875 C-4.92197376 6.19259559 -4.92197376 6.19259559 -6.09375 8.125 C-6.9311569 10.74644769 -7.00979312 12.87786149 -6.9375 15.625 C-6.91945312 16.51703125 -6.90140625 17.4090625 -6.8828125 18.328125 C-6.85960937 19.00359375 -6.83640625 19.6790625 -6.8125 20.375 C-2.18275009 22.14901632 2.14794843 22.77141621 7.0625 23 C7.75085938 23.03867187 8.43921875 23.07734375 9.1484375 23.1171875 C10.82773246 23.21048166 12.50757767 23.29378238 14.1875 23.375 C14.1875 25.025 14.1875 26.675 14.1875 28.375 C11.62435501 28.45632187 9.06381582 28.51564175 6.5 28.5625 C5.77876953 28.58763672 5.05753906 28.61277344 4.31445312 28.63867188 C-1.37624823 28.71662669 -4.39892053 27.45567196 -8.625 23.8125 C-9.8125 22.375 -9.8125 22.375 -9.8125 20.375 C-10.4725 20.375 -11.1325 20.375 -11.8125 20.375 C-12.59943051 8.43114358 -12.59943051 8.43114358 -9.4375 4.1875 C-8.57125 3.589375 -7.705 2.99125 -6.8125 2.375 C-4.33231247 -0.10518753 -3.42734049 0.05138442 0 0 Z " fill="#2D3843" transform="translate(172.8125,373.625)"/>
<path d="M0 0 C0.33 0 0.66 0 1 0 C1 11.88 1 23.76 1 36 C3.97 36 6.94 36 10 36 C13 38 13 38 13.75 40.5 C14 43 14 43 13 45 C9.9375 45.625 9.9375 45.625 7 46 C7 45.34 7 44.68 7 44 C6.01 44.66 5.02 45.32 4 46 C3.45155136 49.08371679 3.45155136 49.08371679 3.375 52.5625 C3.08266361 58.91733639 3.08266361 58.91733639 2 60 C1.8415735 62.0708472 1.74875578 64.14678029 1.68359375 66.22265625 C1.64169922 67.48271484 1.59980469 68.74277344 1.55664062 70.04101562 C1.51682404 71.38150736 1.47711186 72.7220022 1.4375 74.0625 C1.39431958 75.40691523 1.35070544 76.7513166 1.30664062 78.09570312 C1.20014642 81.3970234 1.0981354 84.69842236 1 88 C0.67 88 0.34 88 0 88 C0 58.96 0 29.92 0 0 Z M5 46 C7 47 7 47 7 47 Z " fill="#E9EBED" transform="translate(292,334)"/>
<path d="M0 0 C0.66 0.33 1.32 0.66 2 1 C2.33 0.34 2.66 -0.32 3 -1 C3.66 -1 4.32 -1 5 -1 C4.45660208 3.56454251 3.20536179 6.9728176 1 11 C0.67 10.34 0.34 9.68 0 9 C-4.54805635 8.82164485 -7.8794254 9.00214565 -12 11 C-12 11.66 -12 12.32 -12 13 C-12.66 13 -13.32 13 -14 13 C-13.01 10.03 -12.02 7.06 -11 4 C-11.66 3.67 -12.32 3.34 -13 3 C-8.49414959 -1.64665824 -5.97663818 -1.27370978 0 0 Z " fill="#F5F5F6" transform="translate(153,371)"/>
<path d="M0 0 C5.2953712 -0.50432107 7.86704506 0.71242221 12 4 C14.20192224 7.30288336 14.23959968 8.27462727 14.1953125 12.10546875 C14.18564453 13.57983398 14.18564453 13.57983398 14.17578125 15.08398438 C14.15902344 16.10814453 14.14226562 17.13230469 14.125 18.1875 C14.11597656 19.22326172 14.10695313 20.25902344 14.09765625 21.32617188 C14.0740786 23.88434685 14.0411703 26.44205748 14 29 C12.68 28.67 11.36 28.34 10 28 C10 21.07 10 14.14 10 7 C6.7 6.34 3.4 5.68 0 5 C0 3.35 0 1.7 0 0 Z " fill="#2C3843" transform="translate(381,373)"/>
<path d="M0 0 C0.33 0 0.66 0 1 0 C1.13020833 1.98567708 1.26041667 3.97135417 1.390625 5.95703125 C1.87164375 8.10807062 1.87164375 8.10807062 3.5625 9.71875 C6.88589405 11.46566226 10.07399129 11.56589291 13.75 11.6875 C14.79607422 11.73874023 14.79607422 11.73874023 15.86328125 11.79101562 C17.57497108 11.87308295 19.2874576 11.93822919 21 12 C22.43811766 14.87106223 23.09195117 16.46621565 22.5390625 19.67578125 C22.23742187 20.54589844 21.93578125 21.41601562 21.625 22.3125 C21.32851562 23.19550781 21.03203125 24.07851563 20.7265625 24.98828125 C20.36691406 25.98408203 20.36691406 25.98408203 20 27 C19 24 19 24 20 21 C19.14277344 21.02320313 18.28554687 21.04640625 17.40234375 21.0703125 C11.19626131 21.16826645 5.8428778 21.17409407 0 19 C0.66 18.34 1.32 17.68 2 17 C2.99 17.33 3.98 17.66 5 18 C7.73289293 18.22797562 10.45042204 18.41668187 13.1875 18.5625 C13.93708984 18.60568359 14.68667969 18.64886719 15.45898438 18.69335938 C17.30578375 18.79922685 19.15286834 18.9000976 21 19 C21 17.35 21 15.7 21 14 C19.48019531 14.05220703 19.48019531 14.05220703 17.9296875 14.10546875 C16.5781417 14.13362595 15.22657781 14.16092403 13.875 14.1875 C13.20984375 14.21263672 12.5446875 14.23777344 11.859375 14.26367188 C7.13820598 14.33310083 3.99489382 13.50743336 0 11 C-1.62651522 7.74696956 -1.11453156 4.60774398 -1 1 C-0.67 0.67 -0.34 0.34 0 0 Z " fill="#49545F" transform="translate(166,383)"/>
<path d="M0 0 C3.83473284 -0.35671933 5.55342875 -0.29771416 8.8125 1.875 C11.15805999 4.15354399 11.94999816 5.01050126 12.11352539 8.24658203 C12.10828857 9.15778809 12.10305176 10.06899414 12.09765625 11.0078125 C12.09443359 11.99394531 12.09121094 12.98007812 12.08789062 13.99609375 C12.07951172 15.02863281 12.07113281 16.06117188 12.0625 17.125 C12.05798828 18.16527344 12.05347656 19.20554687 12.04882812 20.27734375 C12.03701952 22.85161962 12.02055075 25.42578146 12 28 C11.01 27.67 10.02 27.34 9 27 C8.93941406 25.81921875 8.87882812 24.6384375 8.81640625 23.421875 C8.73197418 21.8645723 8.64732751 20.30728121 8.5625 18.75 C8.52318359 17.97269531 8.48386719 17.19539063 8.44335938 16.39453125 C8.38051758 15.26337891 8.38051758 15.26337891 8.31640625 14.109375 C8.27974854 13.41811523 8.24309082 12.72685547 8.20532227 12.01464844 C7.99324476 9.93371671 7.55491323 8.01427578 7 6 C4.69 5.34 2.38 4.68 0 4 C0 2.68 0 1.36 0 0 Z " fill="#293541" transform="translate(256,374)"/>
<path d="M0 0 C1.65 0.33 3.3 0.66 5 1 C4.00790606 3.67102214 3.00824802 5.98746301 1.4375 8.375 C-0.31405116 11.57348473 -0.64675078 14.39685799 -1 18 C-1.33 18 -1.66 18 -2 18 C-2.33 15.69 -2.66 13.38 -3 11 C-3 14.63 -3 18.26 -3 22 C-5.67439732 19.32560268 -5.86748734 17.35397258 -6.24609375 13.6640625 C-5.76869303 8.49601025 -2.7615962 4.28247527 0 0 Z M8 4 C8.66 4 9.32 4 10 4 C10 4.66 10 5.32 10 6 C11.32 5.67 12.64 5.34 14 5 C13.67 5.99 13.34 6.98 13 8 C10.38502661 9.23867161 7.74488051 10.08503983 5 11 C5 10.34 5 9.68 5 9 C6 8 7 7 8 6 C8 5.34 8 4.68 8 4 Z M2 10 C2.99 10.66 3.98 11.32 5 12 C3.35 12.33 1.7 12.66 0 13 C0 12.34 0 11.68 0 11 C0.66 10.67 1.32 10.34 2 10 Z " fill="#F3F3F3" transform="translate(105,373)"/>
<path d="M0 0 C1.5 1.1875 1.5 1.1875 3 3 C3.1875 5.6875 3.1875 5.6875 3 8 C3.66 8 4.32 8 5 8 C5.33 6.02 5.66 4.04 6 2 C6.33 2 6.66 2 7 2 C7 8.27 7 14.54 7 21 C6.34 21 5.68 21 5 21 C4.67 21.66 4.34 22.32 4 23 C1 21 1 21 0 18 C-0.30987036 14.41927579 -0.50945584 10.83789986 -0.71875 7.25 C-0.87350971 3.9907069 -0.87350971 3.9907069 -2 1 C-1.34 0.67 -0.68 0.34 0 0 Z " fill="#F2F3F2" transform="translate(213,381)"/>
<path d="M0 0 C0.66 0 1.32 0 2 0 C2.13530844 3.06398451 2.2342407 6.12197126 2.3125 9.1875 C2.3753418 10.48397461 2.3753418 10.48397461 2.43945312 11.80664062 C2.52562202 16.30465691 2.46814342 18.3563028 -0.25 22.09375 C-4.25513449 24.87003641 -6.25742554 24.40191309 -11 24 C-11 22.68 -11 21.36 -11 20 C-8.69 20 -6.38 20 -4 20 C-3.67 19.01 -3.34 18.02 -3 17 C-2.34 17 -1.68 17 -1 17 C-1.01160156 16.19175781 -1.02320313 15.38351562 -1.03515625 14.55078125 C-1.04417969 13.48214844 -1.05320312 12.41351563 -1.0625 11.3125 C-1.07410156 10.25675781 -1.08570313 9.20101563 -1.09765625 8.11328125 C-1.00865425 5.27589738 -0.64939838 2.7561081 0 0 Z " fill="#2A373D" transform="translate(289,377)"/>
<path d="M0 0 C0.33 1.32 0.66 2.64 1 4 C1.99 4 2.98 4 4 4 C3.67 5.98 3.34 7.96 3 10 C2.34 10 1.68 10 1 10 C0.690625 10.804375 0.38125 11.60875 0.0625 12.4375 C-1 15 -1 15 -2 16 C-2.23075082 17.34747084 -2.41153063 18.70377565 -2.5625 20.0625 C-2.706875 21.361875 -2.85125 22.66125 -3 24 C-3.33 23.34 -3.66 22.68 -4 22 C-4.66 22 -5.32 22 -6 22 C-5.7525 22.7425 -5.505 23.485 -5.25 24.25 C-5.1675 25.1575 -5.085 26.065 -5 27 C-6.9375 29.3125 -6.9375 29.3125 -9 31 C-10.40907283 28.18185434 -9.50872691 26.82722796 -8.5625 23.875 C-8.27503906 22.96492188 -7.98757812 22.05484375 -7.69140625 21.1171875 C-7.46324219 20.41851562 -7.23507813 19.71984375 -7 19 C-6.34 19 -5.68 19 -5 19 C-4.83564453 18.07380859 -4.83564453 18.07380859 -4.66796875 17.12890625 C-3.5622734 11.22287499 -2.04638565 5.64802441 0 0 Z " fill="#E8EDEF" transform="translate(199,367)"/>
<path d="M0 0 C2 1 2 1 5 3 C5 4.32 5 5.64 5 7 C5.66 7.33 6.32 7.66 7 8 C2.25140406 8.63314613 -2.19946837 9 -7 9 C-5.44499019 5.18315774 -2.96404505 2.80804268 0 0 Z " fill="#F5F4F4" transform="translate(237,370)"/>
<path d="M0 0 C0.66 0 1.32 0 2 0 C1.01 3.96 0.02 7.92 -1 12 C-2 9 -2 9 -1 6 C-1.85722656 6.02320313 -2.71445313 6.04640625 -3.59765625 6.0703125 C-9.80373869 6.16826645 -15.1571222 6.17409407 -21 4 C-20.34 3.34 -19.68 2.68 -19 2 C-18.01 2.33 -17.02 2.66 -16 3 C-13.26710707 3.22797562 -10.54957796 3.41668187 -7.8125 3.5625 C-7.06291016 3.60568359 -6.31332031 3.64886719 -5.54101562 3.69335938 C-3.69421625 3.79922685 -1.84713166 3.9000976 0 4 C0 2.68 0 1.36 0 0 Z " fill="#535D67" transform="translate(187,398)"/>
<path d="M0 0 C0.66 0 1.32 0 2 0 C1.45660208 4.56454251 0.20536179 7.9728176 -2 12 C-2.33 11.34 -2.66 10.68 -3 10 C-3.99 10 -4.98 10 -6 10 C-5.814375 9.38125 -5.62875 8.7625 -5.4375 8.125 C-4.76313824 5.95839822 -4.76313824 5.95839822 -6 4 C-8.01669827 2.86649466 -8.01669827 2.86649466 -10 2 C-7 2 -4 2 -1 2 C-0.67 1.34 -0.34 0.68 0 0 Z " fill="#E7EAED" transform="translate(156,370)"/>
<path d="M0 0 C0.66 1.32 1.32 2.64 2 4 C2.66 4 3.32 4 4 4 C4.33 3.34 4.66 2.68 5 2 C5 3.65 5 5.3 5 7 C3.329375 7.2165625 3.329375 7.2165625 1.625 7.4375 C-1.82142047 7.78372035 -1.82142047 7.78372035 -4 9 C-2.25 2.25 -2.25 2.25 0 0 Z " fill="#F5F5F5" transform="translate(330,387)"/>
<path d="M0 0 C0.66 0.66 1.32 1.32 2 2 C0.9275 2.144375 -0.145 2.28875 -1.25 2.4375 C-5.19763562 2.95126967 -5.19763562 2.95126967 -9 4 C-9.99 5.485 -9.99 5.485 -11 7 C-11.66 7 -12.32 7 -13 7 C-9.91052069 0.10808462 -7.36759634 -0.58472987 0 0 Z " fill="#5F6468" transform="translate(394,273)"/>
<path d="M0 0 C3.2573612 3.2573612 2.96496645 7.53672533 3 12 C2.0625 15.125 2.0625 15.125 1 17 C0.67 17 0.34 17 0 17 C0 11.39 0 5.78 0 0 Z " fill="#F3F3F3" transform="translate(311,377)"/>
<path d="M0 0 C0.66 0.66 1.32 1.32 2 2 C0.56877218 3.48523642 -0.87020889 4.96300462 -2.3125 6.4375 C-3.51326172 7.67306641 -3.51326172 7.67306641 -4.73828125 8.93359375 C-7 11 -7 11 -10 12 C-8.75120909 8.25362727 -6.84204893 6.70986061 -4 4 C-3.236875 3.236875 -2.47375 2.47375 -1.6875 1.6875 C-1.130625 1.130625 -0.57375 0.57375 0 0 Z M2 0 C4 1 4 1 4 1 Z " fill="#D4D9DC" transform="translate(256,223)"/>
<path d="M0 0 C1.485 0.99 1.485 0.99 3 2 C3.34057617 4.24658203 3.34057617 4.24658203 3.29296875 7.0078125 C3.28330078 7.99394531 3.27363281 8.98007812 3.26367188 9.99609375 C3.23853516 11.02863281 3.21339844 12.06117188 3.1875 13.125 C3.17396484 14.16527344 3.16042969 15.20554687 3.14648438 16.27734375 C3.11105228 18.85207627 3.06165221 21.4257833 3 24 C2.67 24 2.34 24 2 24 C1.93941406 22.68644531 1.87882812 21.37289063 1.81640625 20.01953125 C1.73196744 18.28384459 1.64732112 16.54816802 1.5625 14.8125 C1.52318359 13.94818359 1.48386719 13.08386719 1.44335938 12.19335938 C1.23652984 8.04085878 0.99896469 4.05462138 0 0 Z " fill="#4A5662" transform="translate(267,376)"/>
<path d="M0 0 C0.33 1.32 0.66 2.64 1 4 C-2.14591933 6.80045623 -4.067064 7.35261589 -8.25 7.1875 C-9.14203125 7.16042969 -10.0340625 7.13335937 -10.953125 7.10546875 C-11.96632813 7.05326172 -11.96632813 7.05326172 -13 7 C-13 6.67 -13 6.34 -13 6 C-12.39671875 5.90203125 -11.7934375 5.8040625 -11.171875 5.703125 C-6.29421718 4.79053096 -3.16176612 4.12404277 0 0 Z " fill="#4A575E" transform="translate(290,396)"/>
<path d="M0 0 C0.33 0 0.66 0 1 0 C1.17942163 3.94727588 1.09350689 6.5980513 -1 10 C-1.99 9.67 -2.98 9.34 -4 9 C-4.33 7.35 -4.66 5.7 -5 4 C-4.01 4.33 -3.02 4.66 -2 5 C-1.34 3.35 -0.68 1.7 0 0 Z " fill="#F3F5F7" transform="translate(198,385)"/>
<path d="M0 0 C0.33 0 0.66 0 1 0 C2.05699482 5.28497409 2.05699482 5.28497409 2 8 C0.0625 10.5 0.0625 10.5 -2 12 C-3.40907283 9.18185434 -2.50872691 7.82722796 -1.5625 4.875 C-1.27503906 3.96492188 -0.98757812 3.05484375 -0.69140625 2.1171875 C-0.46324219 1.41851562 -0.23507813 0.71984375 0 0 Z " fill="#BBC2C5" transform="translate(192,386)"/>
<path d="M0 0 C0.33 0.66 0.66 1.32 1 2 C-2.08290155 6.22797927 -2.08290155 6.22797927 -4 8 C-6.8125 8.375 -6.8125 8.375 -9 8 C-8.38125 7.7525 -7.7625 7.505 -7.125 7.25 C-4.60421533 5.76718549 -4.2147002 4.59136042 -3 2 C-2.01 1.34 -1.02 0.68 0 0 Z " fill="#F5F5F5" transform="translate(126,393)"/>
<path d="M0 0 C0.66 0.33 1.32 0.66 2 1 C2 4.96 2 8.92 2 13 C1.01 13 0.02 13 -1 13 C-0.67 8.71 -0.34 4.42 0 0 Z " fill="#F7F7F7" transform="translate(126,378)"/>
<path d="M0 0 C0.33 1.32 0.66 2.64 1 4 C1.99 4 2.98 4 4 4 C4 4.66 4 5.32 4 6 C2.35 6.33 0.7 6.66 -1 7 C-1.33 8.32 -1.66 9.64 -2 11 C-3 9 -3 9 -2.44140625 6.8359375 C-2.15136719 6.02382813 -1.86132812 5.21171875 -1.5625 4.375 C-1.27503906 3.55773437 -0.98757812 2.74046875 -0.69140625 1.8984375 C-0.46324219 1.27195312 -0.23507813 0.64546875 0 0 Z " fill="#D6DBDF" transform="translate(199,367)"/>
<path d="M0 0 C1 2 1 2 0.3125 4.375 C-1.09398311 7.18796623 -2.67557877 8.9080209 -5 11 C-5.66 10.67 -6.32 10.34 -7 10 C-3.535 5.05 -3.535 5.05 0 0 Z " fill="#CDD4DA" transform="translate(396,134)"/>
<path d="M0 0 C3.96 0.33 7.92 0.66 12 1 C11.67 1.66 11.34 2.32 11 3 C9.54257537 3.08096803 8.08387193 3.13917774 6.625 3.1875 C5.81289062 3.22230469 5.00078125 3.25710938 4.1640625 3.29296875 C3.44992188 3.19628906 2.73578125 3.09960938 2 3 C1.34 2.01 0.68 1.02 0 0 Z " fill="#F2F2F2" transform="translate(108,402)"/>
<path d="M0 0 C6.57142857 5.14285714 6.57142857 5.14285714 8 9 C7.01 9.495 7.01 9.495 6 10 C5.67 8.68 5.34 7.36 5 6 C3.68 6 2.36 6 1 6 C0.67 4.02 0.34 2.04 0 0 Z " fill="#D0DADC" transform="translate(205,273)"/>
<path d="M0 0 C0.33 0 0.66 0 1 0 C1.33 3.3 1.66 6.6 2 10 C2.66 10 3.32 10 4 10 C3.67 11.32 3.34 12.64 3 14 C0.19954377 10.85408067 -0.35261589 8.932936 -0.1875 4.75 C-0.16042969 3.85796875 -0.13335937 2.9659375 -0.10546875 2.046875 C-0.07066406 1.37140625 -0.03585938 0.6959375 0 0 Z " fill="#CAD4D6" transform="translate(242,242)"/>
<path d="M0 0 C0.66 0.33 1.32 0.66 2 1 C1.01 3.97 0.02 6.94 -1 10 C-3 6 -3 6 -3 3 C-2.01 3 -1.02 3 0 3 C0 2.01 0 1.02 0 0 Z " fill="#D6DBDD" transform="translate(148,394)"/>
<path d="M0 0 C2 2 2 2 2 4 C1.34 4 0.68 4 0 4 C0 4.66 0 5.32 0 6 C-1.32 5.67 -2.64 5.34 -4 5 C-2.25 1.125 -2.25 1.125 0 0 Z " fill="#F2F5F6" transform="translate(200,373)"/>
<path d="M0 0 C1.65 0 3.3 0 5 0 C5.33 0.99 5.66 1.98 6 3 C3.69 3 1.38 3 -1 3 C-0.67 2.01 -0.34 1.02 0 0 Z " fill="#F7F8F7" transform="translate(205,377)"/>
<path d="M0 0 C0.33 0.66 0.66 1.32 1 2 C1.66 2.33 2.32 2.66 3 3 C2.03114628 4.68496298 1.03013277 6.35178756 0 8 C-0.33 8 -0.66 8 -1 8 C-1.04241723 5.66705225 -1.04092937 3.33297433 -1 1 C-0.67 0.67 -0.34 0.34 0 0 Z " fill="#F2F2F2" transform="translate(337,350)"/>
</svg>
